<svg width="106" height="32" viewBox="0 0 106 32" fill="none" xmlns="http://www.w3.org/2000/svg">
<path d="M7.248 27L4.608 21.744H3.528V27H1.392V9.168H3.528V19.944H4.608L7.248 14.76H9.504L6.36 20.664L9.576 27H7.248ZM13.7289 27.192C12.6569 27.192 11.8809 26.928 11.4009 26.4C10.9369 25.856 10.7049 24.92 10.7049 23.592C10.7049 22.664 10.7929 21.944 10.9689 21.432C11.1609 20.904 11.4729 20.528 11.9049 20.304C12.3529 20.064 12.9769 19.944 13.7769 19.944C14.4969 19.944 15.4649 19.976 16.6809 20.04V19.272C16.6809 18.344 16.6169 17.688 16.4889 17.304C16.3609 16.904 16.1289 16.648 15.7929 16.536C15.4729 16.424 14.9209 16.368 14.1369 16.368C13.4649 16.368 12.5129 16.44 11.2809 16.584V14.928C12.3529 14.688 13.5049 14.568 14.7369 14.568C15.8889 14.568 16.7529 14.712 17.3289 15C17.9049 15.288 18.2969 15.768 18.5049 16.44C18.7129 17.096 18.8169 18.056 18.8169 19.32V27H16.8729L16.7769 25.392H16.6329C16.3929 26.112 16.0169 26.592 15.5049 26.832C14.9929 27.072 14.4009 27.192 13.7289 27.192ZM14.5449 25.392C14.9929 25.392 15.3609 25.336 15.6489 25.224C15.9369 25.112 16.1609 24.88 16.3209 24.528C16.5609 23.968 16.6809 23.184 16.6809 22.176V21.432H14.3769C13.9289 21.432 13.5929 21.48 13.3689 21.576C13.1609 21.672 13.0169 21.856 12.9369 22.128C12.8569 22.4 12.8169 22.832 12.8169 23.424C12.8169 23.984 12.8569 24.4 12.9369 24.672C13.0329 24.944 13.2009 25.136 13.4409 25.248C13.6809 25.344 14.0489 25.392 14.5449 25.392ZM33.0448 19.992C33.0448 18.872 33.0048 18.08 32.9248 17.616C32.8608 17.152 32.7168 16.848 32.4928 16.704C32.2688 16.56 31.8928 16.488 31.3648 16.488C30.7568 16.488 30.3088 16.632 30.0208 16.92C29.7488 17.192 29.5808 17.592 29.5168 18.12C29.4528 18.648 29.4208 19.48 29.4208 20.616V27H27.2848V19.992C27.2848 18.888 27.2448 18.104 27.1648 17.64C27.0848 17.16 26.9328 16.848 26.7088 16.704C26.5008 16.56 26.1328 16.488 25.6048 16.488C24.9968 16.488 24.5488 16.632 24.2608 16.92C23.9888 17.208 23.8208 17.624 23.7568 18.168C23.6928 18.712 23.6608 19.528 23.6608 20.616V27H21.5248V14.76H23.4448L23.5408 16.392H23.6848C23.9088 15.8 24.2368 15.352 24.6688 15.048C25.1008 14.728 25.7088 14.568 26.4928 14.568C27.3408 14.568 27.9648 14.712 28.3648 15C28.7808 15.272 29.0688 15.736 29.2288 16.392H29.3728C29.5808 15.8 29.9088 15.352 30.3568 15.048C30.8208 14.728 31.4448 14.568 32.2288 14.568C33.0608 14.568 33.6848 14.728 34.1008 15.048C34.5168 15.352 34.7968 15.824 34.9408 16.464C35.1008 17.104 35.1808 18 35.1808 19.152V27H33.0448V19.992ZM37.9076 14.76H39.8276L39.9236 16.392H40.0676C40.2916 15.688 40.6436 15.208 41.1236 14.952C41.6196 14.696 42.2036 14.568 42.8756 14.568C43.7716 14.568 44.4516 14.744 44.9156 15.096C45.3956 15.448 45.7316 16.072 45.9236 16.968C46.1316 17.848 46.2356 19.144 46.2356 20.856C46.2356 22.552 46.1396 23.848 45.9476 24.744C45.7556 25.64 45.4196 26.272 44.9396 26.64C44.4756 27.008 43.7956 27.192 42.8996 27.192C42.1956 27.192 41.6196 27.072 41.1716 26.832C40.7236 26.576 40.3876 26.152 40.1636 25.56H40.0436V31.608H37.9076V14.76ZM42.0356 25.296C42.6916 25.296 43.1476 25.208 43.4036 25.032C43.6756 24.84 43.8596 24.456 43.9556 23.88C44.0516 23.288 44.0996 22.288 44.0996 20.88C44.0996 19.472 44.0516 18.48 43.9556 17.904C43.8596 17.328 43.6756 16.952 43.4036 16.776C43.1476 16.584 42.6916 16.488 42.0356 16.488C41.5076 16.488 41.0996 16.592 40.8116 16.8C40.5236 17.008 40.3236 17.368 40.2116 17.88C40.1316 18.216 40.0836 18.6 40.0676 19.032C40.0516 19.448 40.0436 20.064 40.0436 20.88C40.0436 22.208 40.0836 23.12 40.1636 23.616C40.2756 24.24 40.4756 24.68 40.7636 24.936C41.0516 25.176 41.4756 25.296 42.0356 25.296ZM54.6894 25.368H54.5454C54.3374 25.976 54.0014 26.432 53.5374 26.736C53.0734 27.04 52.4414 27.192 51.6414 27.192C50.7774 27.192 50.1294 27.032 49.6974 26.712C49.2654 26.392 48.9694 25.912 48.8094 25.272C48.6654 24.632 48.5934 23.728 48.5934 22.56V14.76H50.7294V21.768C50.7294 22.872 50.7694 23.664 50.8494 24.144C50.9454 24.608 51.1134 24.912 51.3534 25.056C51.5934 25.2 51.9934 25.272 52.5534 25.272C53.1934 25.272 53.6494 25.128 53.9214 24.84C54.2094 24.552 54.3854 24.144 54.4494 23.616C54.5294 23.072 54.5694 22.248 54.5694 21.144V14.76H56.7054V27H54.7854L54.6894 25.368ZM62.5896 27.192C62.0616 27.192 61.4776 27.16 60.8376 27.096C60.1976 27.032 59.6536 26.96 59.2056 26.88V25.2C60.1656 25.344 61.1816 25.416 62.2536 25.416C62.8136 25.416 63.2376 25.352 63.5256 25.224C63.8136 25.096 63.9976 24.912 64.0776 24.672C64.1736 24.416 64.2216 24.064 64.2216 23.616C64.2216 23.088 64.1896 22.712 64.1256 22.488C64.0776 22.248 63.9816 22.096 63.8376 22.032C63.6936 21.952 63.4456 21.888 63.0936 21.84L60.7896 21.504C60.0856 21.392 59.5976 21.096 59.3256 20.616C59.0536 20.12 58.9176 19.304 58.9176 18.168C58.9176 16.776 59.2376 15.832 59.8776 15.336C60.5336 14.824 61.5016 14.568 62.7816 14.568C63.3096 14.568 63.8536 14.6 64.4136 14.664C64.9896 14.728 65.4456 14.808 65.7816 14.904V16.584C64.9816 16.424 64.0456 16.344 62.9736 16.344C62.2536 16.344 61.7496 16.464 61.4616 16.704C61.1736 16.928 61.0296 17.392 61.0296 18.096C61.0296 18.576 61.0536 18.928 61.1016 19.152C61.1656 19.36 61.2616 19.504 61.3896 19.584C61.5336 19.664 61.7656 19.728 62.0856 19.776L64.1976 20.064C64.6936 20.128 65.0856 20.264 65.3736 20.472C65.6776 20.664 65.9096 21 66.0696 21.48C66.2296 21.944 66.3096 22.624 66.3096 23.52C66.3096 24.912 66.0136 25.872 65.4216 26.4C64.8296 26.928 63.8856 27.192 62.5896 27.192Z" fill="black"/>
<path d="M69.104 10.488H73.76C75.504 10.488 76.744 10.736 77.48 11.232C78.232 11.712 78.696 12.472 78.872 13.512C79.048 14.552 79.136 16.296 79.136 18.744C79.136 21.176 79.048 22.92 78.872 23.976C78.696 25.016 78.232 25.784 77.48 26.28C76.744 26.76 75.504 27 73.76 27H69.104V10.488ZM73.736 23.712C74.312 23.712 74.688 23.64 74.864 23.496C75.056 23.336 75.176 22.952 75.224 22.344C75.288 21.736 75.32 20.536 75.32 18.744C75.32 16.968 75.288 15.776 75.224 15.168C75.176 14.544 75.056 14.16 74.864 14.016C74.672 13.856 74.296 13.776 73.736 13.776H72.92V23.712H73.736ZM86.3611 25.584H86.1451C85.7291 26.656 84.8651 27.192 83.5531 27.192C82.8011 27.192 82.2251 27.04 81.8251 26.736C81.4411 26.432 81.1851 25.984 81.0571 25.392C80.9291 24.784 80.8651 23.936 80.8651 22.848V14.76H84.4411V21.336C84.4411 22.264 84.4571 22.904 84.4891 23.256C84.5371 23.608 84.6171 23.832 84.7291 23.928C84.8411 24.024 85.0491 24.072 85.3531 24.072C85.6731 24.072 85.8891 24.008 86.0011 23.88C86.1291 23.752 86.2091 23.496 86.2411 23.112C86.2731 22.728 86.2891 22.008 86.2891 20.952V14.76H89.8651V27H86.4571L86.3611 25.584ZM95.9881 31.92C95.3641 31.92 94.7241 31.896 94.0681 31.848C93.4121 31.8 92.8841 31.736 92.4841 31.656V28.992C93.0921 29.008 93.9721 29.016 95.1241 29.016C95.8281 29.016 96.3081 28.968 96.5641 28.872C96.8361 28.776 97.0041 28.576 97.0681 28.272C97.1321 27.968 97.1641 27.392 97.1641 26.544V25.32H96.9721C96.5561 26.376 95.7081 26.904 94.4281 26.904C93.6601 26.904 93.0841 26.752 92.7001 26.448C92.3161 26.128 92.0601 25.664 91.9321 25.056C91.8041 24.432 91.7401 23.56 91.7401 22.44V14.76H95.3161V21.048C95.3161 21.992 95.3321 22.64 95.3641 22.992C95.4121 23.344 95.4921 23.568 95.6041 23.664C95.7161 23.744 95.9241 23.784 96.2281 23.784C96.5481 23.784 96.7641 23.72 96.8761 23.592C97.0041 23.464 97.0841 23.208 97.1161 22.824C97.1481 22.44 97.1641 21.72 97.1641 20.664V14.76H100.74V25.632C100.74 27.28 100.652 28.512 100.476 29.328C100.3 30.16 99.8761 30.8 99.2041 31.248C98.5321 31.696 97.4601 31.92 95.9881 31.92Z" fill="#FFD037"/>
</svg>
